<svg width="82" height="67" viewBox="0 0 82 67" fill="none" xmlns="http://www.w3.org/2000/svg">
<path d="M11.5693 28.2479H7.57669L6.81943 30.0345H5.42822L8.92294 22.1172H10.2911L13.7489 30.0345H12.3266L11.5693 28.2479ZM11.0656 27.0596L9.56725 23.543L8.06886 27.0596H11.0656Z" fill="white"/>
<path d="M19.0336 24.0275V24.8954L15.5953 28.9676L19.135 28.9791V30.0418L13.9897 30.0303V29.1486L17.428 25.0764H14.0912V24.0137L19.0336 24.0275Z" fill="white"/>
<path d="M23.7287 30.0373V29.302C23.2987 29.8345 22.6083 30.0938 21.7381 30.0938C20.4368 30.0938 19.623 29.287 19.623 28.2277C19.623 27.1305 20.4483 26.4297 21.896 26.4181H23.7171V26.2372C23.7171 25.4788 23.2307 25.0269 22.281 25.0269C21.7047 25.0269 21.1042 25.231 20.5048 25.6378L19.9734 24.733C20.8102 24.2351 21.4211 23.9746 22.5634 23.9746C24.1125 23.9746 24.9838 24.7665 24.9954 26.0897L25.0069 30.0373H23.7287ZM23.7171 27.9223V27.3679H22.0885C21.2402 27.3679 20.8437 27.5984 20.8437 28.1747C20.8437 28.7176 21.2851 29.068 22.009 29.068C22.9368 29.0645 23.6491 28.5781 23.7171 27.9223Z" fill="white"/>
<path d="M32.2005 21.6426V30.0347H30.9004V29.0055C30.4705 29.7074 29.7478 30.0912 28.7853 30.0912C27.0564 30.0912 25.9038 28.836 25.9038 27.0034C25.9038 25.1938 27.0691 23.9616 28.7657 23.9616C29.7385 23.9616 30.4624 24.357 30.9038 25.0578V21.6426H32.2005ZM30.9004 27.0495C30.9004 25.8842 30.142 25.0693 29.0562 25.0693C27.9704 25.0693 27.212 25.8957 27.2016 27.0495C27.2132 28.1917 27.9589 29.0089 29.0562 29.0089C30.1535 29.0089 30.9004 28.1917 30.9004 27.0495V27.0495Z" fill="white"/>
<path d="M35.3002 22.298C35.2959 22.447 35.2478 22.5915 35.1618 22.7133C35.0758 22.8352 34.9559 22.929 34.8169 22.983C34.6779 23.037 34.5261 23.0489 34.3804 23.0171C34.2348 22.9853 34.1017 22.9113 33.9978 22.8043C33.894 22.6973 33.824 22.562 33.7966 22.4155C33.7692 22.2689 33.7856 22.1175 33.8438 21.9802C33.9019 21.8429 33.9993 21.7258 34.1236 21.6436C34.248 21.5613 34.3938 21.5175 34.5429 21.5177C34.6448 21.516 34.746 21.5352 34.8401 21.5741C34.9343 21.613 35.0195 21.6708 35.0904 21.744C35.1614 21.8171 35.2166 21.904 35.2527 21.9993C35.2888 22.0945 35.305 22.1962 35.3002 22.298V22.298ZM35.185 24.0177V30.0343H33.8986V24.0177H35.185Z" fill="white"/>
<path fill-rule="evenodd" clip-rule="evenodd" d="M19.0884 9.45312L21.8339 12.3612L22.4137 13.1691L22.9969 13.9794L22.2811 13.2879L21.5676 12.5986L19.0884 9.45312Z" fill="white"/>
<path fill-rule="evenodd" clip-rule="evenodd" d="M20.3252 8.61914L22.2685 12.1219L22.6316 13.0486L22.997 13.9765L22.4737 13.1282L21.9504 12.2787L20.3252 8.61914Z" fill="white"/>
<path fill-rule="evenodd" clip-rule="evenodd" d="M21.7407 8.15234L22.755 12.0124L22.876 12.9933L22.9971 13.9765L22.6997 13.0267L22.4035 12.0758L21.7407 8.15234Z" fill="white"/>
<path fill-rule="evenodd" clip-rule="evenodd" d="M23.2414 8.07812L23.2587 12.0327L23.1273 13.0021L22.9971 13.9737L22.9475 12.9883L22.8979 12.0016L23.2414 8.07812Z" fill="white"/>
<path fill-rule="evenodd" clip-rule="evenodd" d="M24.7267 8.41797L23.7412 12.1985L23.37 13.0895L22.9966 13.9816L23.1983 13.0284L23.3988 12.0741L24.7267 8.41797Z" fill="white"/>
<path fill-rule="evenodd" clip-rule="evenodd" d="M26.0971 9.125L24.1757 12.471L23.5867 13.2237L22.9966 13.9763L23.4334 13.12L23.8726 12.2624L26.0971 9.125Z" fill="white"/>
<path fill-rule="evenodd" clip-rule="evenodd" d="M27.252 10.1641L24.5284 12.852L23.7631 13.4133L22.9966 13.9758L23.6409 13.2727L24.284 12.5707L27.252 10.1641Z" fill="white"/>
<path fill-rule="evenodd" clip-rule="evenodd" d="M28.1199 11.4727L24.7785 13.3157L23.8864 13.6476L22.9966 13.9807L23.8057 13.4817L24.6125 12.9814L28.1199 11.4727Z" fill="white"/>
<path fill-rule="evenodd" clip-rule="evenodd" d="M28.6363 12.9414L24.9065 13.8151L23.9521 13.8981L22.9966 13.9776L23.9118 13.7137L24.8281 13.4532L28.6363 12.9414Z" fill="white"/>
<path fill-rule="evenodd" clip-rule="evenodd" d="M28.7689 14.4862L24.9042 14.3306L23.9498 14.1554L22.9966 13.979L23.9579 13.9687L24.9191 13.9629L28.7689 14.4862Z" fill="white"/>
<path fill-rule="evenodd" clip-rule="evenodd" d="M28.5095 15.9925L24.7705 14.8191L23.8841 14.3984L22.9966 13.9766L23.9371 14.2232L24.8788 14.4722L28.5095 15.9925Z" fill="white"/>
<path fill-rule="evenodd" clip-rule="evenodd" d="M27.8733 17.3629L24.518 15.2525L23.7573 14.6151L22.9966 13.9766L23.853 14.463L24.7082 14.9482L27.8733 17.3629Z" fill="white"/>
<path fill-rule="evenodd" clip-rule="evenodd" d="M26.9039 18.5017L24.1607 15.5983L23.5787 14.788L22.9966 13.9766L23.7112 14.6693L24.4258 15.3608L26.9039 18.5017Z" fill="white"/>
<path fill-rule="evenodd" clip-rule="evenodd" d="M25.6695 19.3351L23.7227 15.8311L23.3597 14.9056L22.9966 13.9766L23.521 14.8272L24.0432 15.6778L25.6695 19.3351Z" fill="white"/>
<path fill-rule="evenodd" clip-rule="evenodd" d="M24.2529 19.803L23.2375 15.9429L23.1141 14.9597L22.9966 13.9766L23.294 14.9275L23.5879 15.8772L24.2529 19.803Z" fill="white"/>
<path fill-rule="evenodd" clip-rule="evenodd" d="M22.7502 19.8722L22.7329 15.9176L22.8643 14.9459L22.9969 13.9766L23.0453 14.9632L23.0937 15.9487L22.7502 19.8722Z" fill="white"/>
<path fill-rule="evenodd" clip-rule="evenodd" d="M21.2646 19.5402L22.2501 15.7597L22.6224 14.8675L22.997 13.9766L22.7953 14.9332L22.5936 15.8864L21.2646 19.5402Z" fill="white"/>
<path fill-rule="evenodd" clip-rule="evenodd" d="M19.8975 18.8314L21.8154 15.483L22.4067 14.7292L22.9968 13.9766L22.5577 14.833L22.1197 15.6928L19.8975 18.8314Z" fill="white"/>
<path fill-rule="evenodd" clip-rule="evenodd" d="M18.7407 17.7871L21.462 15.0981L22.2297 14.5379L22.9973 13.9766L22.3519 14.6785L21.7064 15.3804L18.7407 17.7871Z" fill="white"/>
<path fill-rule="evenodd" clip-rule="evenodd" d="M17.873 16.4881L21.2133 14.6439L22.1043 14.3097L22.9964 13.9766L22.1873 14.4768L21.3781 14.9759L17.873 16.4881Z" fill="white"/>
<path fill-rule="evenodd" clip-rule="evenodd" d="M17.354 15.0128L21.085 14.1402L22.0405 14.0596L22.996 13.9766L22.0797 14.2394L21.1622 14.501L17.354 15.0128Z" fill="white"/>
<path fill-rule="evenodd" clip-rule="evenodd" d="M17.2222 13.4707L21.0869 13.6263L22.0424 13.8027L22.9968 13.9779L22.0332 13.9848L21.0719 13.9951L17.2222 13.4707Z" fill="white"/>
<path fill-rule="evenodd" clip-rule="evenodd" d="M17.4849 11.9648L21.2216 13.1359L22.1103 13.5566L22.9978 13.9785L22.0538 13.7318L21.1144 13.484L17.4849 11.9648Z" fill="white"/>
<path fill-rule="evenodd" clip-rule="evenodd" d="M18.1216 10.5918L21.4757 12.7034L22.2376 13.3396L22.9971 13.9759L22.1384 13.4895L21.2832 13.0042L18.1216 10.5918Z" fill="white"/>
<path fill-rule="evenodd" clip-rule="evenodd" d="M20.9772 8.38139C21.0481 8.35094 21.1281 8.34945 21.2 8.37724C21.272 8.40503 21.3302 8.45989 21.3622 8.53008C21.3802 8.56393 21.3913 8.60101 21.3948 8.63917C21.3983 8.67734 21.3942 8.71582 21.3827 8.75239C21.3713 8.78896 21.3526 8.82288 21.3279 8.85219C21.3032 8.8815 21.273 8.90561 21.2389 8.92312C21.1686 8.95505 21.0887 8.95808 21.0162 8.93156C20.9437 8.90504 20.8846 8.85108 20.8516 8.78135C20.8323 8.74713 20.8202 8.70931 20.816 8.67022C20.8119 8.63113 20.8159 8.59161 20.8276 8.55411C20.8394 8.51661 20.8588 8.48193 20.8845 8.45222C20.9102 8.42251 20.9418 8.3984 20.9772 8.38139V8.38139Z" fill="white"/>
<path fill-rule="evenodd" clip-rule="evenodd" d="M22.4358 8.0975C22.5132 8.08523 22.5923 8.10331 22.6568 8.14798C22.7212 8.19264 22.7659 8.26044 22.7815 8.33725C22.7907 8.37437 22.7922 8.41296 22.7861 8.4507C22.78 8.48843 22.7662 8.52454 22.7458 8.55684C22.7253 8.58914 22.6985 8.61697 22.6671 8.63866C22.6356 8.66034 22.6 8.67544 22.5625 8.68303C22.4852 8.69563 22.4061 8.67782 22.3416 8.63335C22.2772 8.58887 22.2324 8.52117 22.2168 8.44444C22.2076 8.40724 22.206 8.36858 22.2122 8.33077C22.2183 8.29296 22.232 8.25677 22.2524 8.22438C22.2729 8.19199 22.2997 8.16405 22.3312 8.14225C22.3627 8.12045 22.3982 8.10523 22.4358 8.0975Z" fill="white"/>
<path fill-rule="evenodd" clip-rule="evenodd" d="M23.9365 8.2119C24.0138 8.22002 24.0852 8.25709 24.1363 8.31568C24.1874 8.37426 24.2144 8.45002 24.212 8.52772C24.2113 8.5658 24.2029 8.60333 24.187 8.63798C24.1712 8.67262 24.1484 8.70363 24.1201 8.72905C24.0917 8.75448 24.0584 8.77378 24.0223 8.78574C23.9861 8.79771 23.9479 8.80208 23.91 8.79858C23.8323 8.79045 23.7605 8.75305 23.7094 8.69397C23.6582 8.63489 23.6315 8.55855 23.6345 8.48046C23.6358 8.44269 23.6447 8.40557 23.6608 8.37136C23.6768 8.33715 23.6997 8.30655 23.7279 8.28144C23.7562 8.25632 23.7892 8.23721 23.8251 8.22525C23.8609 8.2133 23.8988 8.20876 23.9365 8.2119Z" fill="white"/>
<path fill-rule="evenodd" clip-rule="evenodd" d="M25.3726 8.72176C25.4473 8.74898 25.5087 8.80388 25.5441 8.8751C25.5795 8.94632 25.5862 9.02842 25.5628 9.10443C25.5514 9.1406 25.5328 9.17407 25.508 9.20277C25.4833 9.23147 25.4529 9.2548 25.4188 9.27132C25.3846 9.28784 25.3475 9.2972 25.3096 9.29883C25.2717 9.30046 25.2339 9.29431 25.1985 9.28078C25.125 9.25244 25.065 9.19739 25.0303 9.12664C24.9957 9.0559 24.9891 8.97468 25.0118 8.89926C25.0232 8.8635 25.0417 8.8304 25.0662 8.80195C25.0907 8.77351 25.1207 8.75031 25.1544 8.73373C25.1881 8.71716 25.2248 8.70755 25.2623 8.7055C25.2998 8.70344 25.3373 8.70897 25.3726 8.72176V8.72176Z" fill="white"/>
<path fill-rule="evenodd" clip-rule="evenodd" d="M26.6478 9.59563C26.7123 9.63971 26.7573 9.70699 26.7734 9.78344C26.7895 9.85989 26.7755 9.93961 26.7342 10.006C26.7139 10.0379 26.6871 10.0654 26.6557 10.0866C26.6242 10.1078 26.5887 10.1223 26.5514 10.1292C26.5142 10.1362 26.4758 10.1353 26.4389 10.1268C26.4019 10.1183 26.3671 10.1023 26.3366 10.0797C26.2718 10.0354 26.2264 9.96797 26.2097 9.89127C26.193 9.81456 26.2062 9.73436 26.2467 9.66709C26.2677 9.63532 26.295 9.60814 26.3268 9.58722C26.3587 9.56629 26.3944 9.55206 26.4319 9.54538C26.4694 9.53869 26.5079 9.5397 26.545 9.54834C26.5821 9.55698 26.6171 9.57307 26.6478 9.59563V9.59563Z" fill="white"/>
<path fill-rule="evenodd" clip-rule="evenodd" d="M27.6732 10.76C27.7259 10.8178 27.7535 10.8942 27.7501 10.9724C27.7466 11.0506 27.7124 11.1242 27.6548 11.1772C27.6261 11.2024 27.5926 11.2215 27.5563 11.2334C27.5201 11.2453 27.4817 11.2497 27.4437 11.2464C27.4057 11.243 27.3687 11.232 27.3351 11.214C27.3014 11.1959 27.2718 11.1713 27.2479 11.1415C27.1961 11.0837 27.1689 11.008 27.1721 10.9305C27.1754 10.853 27.2088 10.7798 27.2652 10.7265C27.294 10.7015 27.3275 10.6824 27.3637 10.6705C27.4 10.6586 27.4382 10.6541 27.4763 10.6572C27.5143 10.6603 27.5513 10.671 27.5851 10.6887C27.619 10.7063 27.6489 10.7306 27.6732 10.76V10.76Z" fill="white"/>
<path fill-rule="evenodd" clip-rule="evenodd" d="M28.3828 12.1434C28.4009 12.1773 28.412 12.2145 28.4155 12.2527C28.419 12.291 28.4149 12.3296 28.4033 12.3662C28.3917 12.4028 28.3729 12.4367 28.348 12.466C28.3231 12.4952 28.2926 12.5192 28.2583 12.5365C28.2058 12.5655 28.1459 12.5782 28.0861 12.5727C28.0264 12.5673 27.9697 12.5442 27.9233 12.5062C27.8769 12.4682 27.843 12.4172 27.8259 12.3597C27.8088 12.3022 27.8094 12.241 27.8275 12.1838C27.8456 12.1266 27.8804 12.0762 27.9275 12.0391C27.9745 12.0019 28.0316 11.9797 28.0914 11.9754C28.1512 11.9711 28.211 11.9847 28.2629 12.0147C28.3148 12.0447 28.3566 12.0895 28.3828 12.1434V12.1434Z" fill="white"/>
<path fill-rule="evenodd" clip-rule="evenodd" d="M28.721 13.6557C28.73 13.6928 28.7315 13.7312 28.7254 13.7688C28.7192 13.8065 28.7056 13.8425 28.6853 13.8747C28.665 13.907 28.6384 13.9348 28.6071 13.9566C28.5758 13.9784 28.5405 13.9936 28.5032 14.0015C28.4258 14.0138 28.3466 13.9957 28.2822 13.951C28.2178 13.9064 28.1731 13.8386 28.1574 13.7618C28.1478 13.7245 28.1459 13.6857 28.1519 13.6477C28.1579 13.6098 28.1716 13.5734 28.1923 13.541C28.2129 13.5085 28.24 13.4807 28.2719 13.4592C28.3038 13.4377 28.3398 13.423 28.3776 13.416C28.4548 13.4035 28.5338 13.4215 28.5979 13.4663C28.662 13.511 28.7062 13.579 28.721 13.6557V13.6557Z" fill="white"/>
<path fill-rule="evenodd" clip-rule="evenodd" d="M28.6703 15.1855C28.6702 15.2235 28.6621 15.261 28.6466 15.2957C28.6311 15.3303 28.6085 15.3614 28.5802 15.3868C28.552 15.4122 28.5188 15.4314 28.4827 15.4432C28.4466 15.455 28.4084 15.459 28.3706 15.4552C28.2926 15.447 28.2206 15.4095 28.1692 15.3502C28.1178 15.2909 28.0909 15.2143 28.094 15.1359C28.095 15.0981 28.1036 15.0609 28.1195 15.0265C28.1354 14.9922 28.1581 14.9614 28.1862 14.9362C28.2144 14.9109 28.2474 14.8917 28.2833 14.8797C28.3192 14.8676 28.3571 14.863 28.3948 14.8662C28.4728 14.8743 28.5446 14.9119 28.5958 14.9712C28.647 15.0306 28.6737 15.1072 28.6703 15.1855V15.1855Z" fill="white"/>
<path fill-rule="evenodd" clip-rule="evenodd" d="M28.2397 16.6373C28.2289 16.6736 28.2107 16.7072 28.1862 16.7361C28.1617 16.7649 28.1314 16.7883 28.0974 16.8048C28.0633 16.8213 28.0262 16.8305 27.9884 16.8318C27.9505 16.8331 27.9129 16.8266 27.8777 16.8125C27.8037 16.7858 27.7428 16.7316 27.7077 16.6612C27.6725 16.5909 27.6657 16.5097 27.6887 16.4344C27.6998 16.3985 27.7182 16.3652 27.7426 16.3366C27.7671 16.308 27.7971 16.2847 27.8309 16.2682C27.8647 16.2517 27.9016 16.2423 27.9392 16.2405C27.9767 16.2388 28.0143 16.2448 28.0495 16.2581C28.1234 16.2853 28.1842 16.3396 28.2196 16.4101C28.2549 16.4805 28.2621 16.5618 28.2397 16.6373V16.6373Z" fill="white"/>
<path fill-rule="evenodd" clip-rule="evenodd" d="M27.4417 17.9099C27.4209 17.9414 27.394 17.9683 27.3624 17.9891C27.3309 18.0099 27.2955 18.0242 27.2584 18.0309C27.2213 18.0377 27.1831 18.0369 27.1463 18.0286C27.1095 18.0203 27.0747 18.0046 27.0441 17.9825C26.979 17.9383 26.9335 17.8708 26.917 17.7939C26.9005 17.7171 26.9142 17.6368 26.9553 17.5698C26.9756 17.5377 27.0023 17.5101 27.0338 17.4888C27.0652 17.4675 27.1007 17.453 27.138 17.446C27.1754 17.4391 27.2138 17.44 27.2508 17.4486C27.2877 17.4572 27.3226 17.4734 27.353 17.4961C27.4179 17.5406 27.4633 17.6083 27.4798 17.6853C27.4963 17.7623 27.4827 17.8426 27.4417 17.9099V17.9099Z" fill="white"/>
<path fill-rule="evenodd" clip-rule="evenodd" d="M26.3457 18.9108C26.3165 18.9353 26.2828 18.9537 26.2465 18.965C26.2101 18.9764 26.1719 18.9805 26.134 18.9771C26.0961 18.9736 26.0593 18.9628 26.0256 18.9451C25.9919 18.9274 25.962 18.9032 25.9377 18.874C25.8854 18.8161 25.8577 18.7402 25.8605 18.6623C25.8633 18.5844 25.8964 18.5107 25.9527 18.4567C25.9817 18.4316 26.0155 18.4125 26.052 18.4007C26.0886 18.3889 26.1271 18.3845 26.1654 18.3878C26.2036 18.3911 26.2408 18.4021 26.2748 18.4201C26.3087 18.4381 26.3387 18.4627 26.363 18.4924C26.415 18.5508 26.4423 18.6271 26.4391 18.7051C26.4359 18.7832 26.4024 18.857 26.3457 18.9108V18.9108Z" fill="white"/>
<path fill-rule="evenodd" clip-rule="evenodd" d="M25.0194 19.5775C24.949 19.6099 24.8687 19.6133 24.7958 19.587C24.7229 19.5607 24.6633 19.5067 24.6298 19.4368C24.6118 19.403 24.6006 19.3659 24.597 19.3277C24.5934 19.2895 24.5974 19.2509 24.6087 19.2143C24.6201 19.1776 24.6386 19.1436 24.6632 19.1141C24.6878 19.0847 24.718 19.0604 24.752 19.0426C24.8226 19.0101 24.9033 19.0068 24.9763 19.0336C25.0493 19.0604 25.1088 19.115 25.1416 19.1856C25.1597 19.2192 25.171 19.2562 25.1746 19.2942C25.1783 19.3323 25.1743 19.3707 25.163 19.4072C25.1516 19.4437 25.133 19.4776 25.1084 19.5068C25.0837 19.5361 25.0535 19.5601 25.0194 19.5775V19.5775Z" fill="white"/>
<path fill-rule="evenodd" clip-rule="evenodd" d="M23.5566 19.8588C23.4791 19.8726 23.3993 19.8553 23.3346 19.8106C23.2698 19.7659 23.2253 19.6975 23.2108 19.6202C23.2007 19.583 23.1985 19.5442 23.2043 19.5061C23.2101 19.4681 23.2237 19.4317 23.2443 19.3992C23.2649 19.3666 23.292 19.3388 23.3239 19.3173C23.3558 19.2958 23.3919 19.2812 23.4298 19.2744C23.5071 19.2602 23.5869 19.2773 23.6517 19.3218C23.7164 19.3663 23.761 19.4346 23.7756 19.5118C23.7858 19.5491 23.7881 19.588 23.7824 19.6262C23.7767 19.6644 23.7632 19.701 23.7426 19.7336C23.722 19.7662 23.6948 19.7942 23.6627 19.8158C23.6307 19.8373 23.5946 19.852 23.5566 19.8588V19.8588Z" fill="white"/>
<path fill-rule="evenodd" clip-rule="evenodd" d="M22.0569 19.7432C21.9791 19.7353 21.9074 19.698 21.8564 19.6388C21.8053 19.5796 21.7789 19.5031 21.7826 19.4251C21.7832 19.3873 21.7916 19.35 21.8073 19.3156C21.823 19.2811 21.8456 19.2503 21.8737 19.225C21.9018 19.1997 21.9348 19.1805 21.9707 19.1685C22.0066 19.1565 22.0446 19.152 22.0822 19.1554C22.16 19.1635 22.2317 19.2009 22.2828 19.26C22.334 19.3191 22.3608 19.3954 22.3577 19.4735C22.3573 19.5115 22.3489 19.5489 22.3332 19.5835C22.3175 19.6181 22.2948 19.6491 22.2665 19.6744C22.2383 19.6998 22.205 19.719 22.1689 19.7308C22.1328 19.7427 22.0947 19.7469 22.0569 19.7432V19.7432Z" fill="white"/>
<path fill-rule="evenodd" clip-rule="evenodd" d="M22.5028 13.4083C22.5761 13.3445 22.6615 13.2962 22.7539 13.2661C22.8463 13.236 22.9438 13.2248 23.0406 13.2332C23.1374 13.2416 23.2315 13.2694 23.3173 13.3149C23.4032 13.3604 23.479 13.4228 23.5402 13.4982C23.6716 13.6448 23.7404 13.8369 23.732 14.0336C23.7236 14.2302 23.6386 14.4158 23.4952 14.5506C23.4223 14.6137 23.3374 14.6616 23.2457 14.6913C23.1539 14.7211 23.0571 14.7321 22.961 14.7237C22.8649 14.7153 22.7714 14.6877 22.6862 14.6425C22.601 14.5974 22.5257 14.5355 22.4648 14.4607C22.3331 14.3147 22.2634 14.1232 22.2705 13.9268C22.2776 13.7304 22.3609 13.5444 22.5028 13.4083Z" fill="white"/>
<path fill-rule="evenodd" clip-rule="evenodd" d="M27.402 10.0322C25.5993 7.94369 22.7846 7.32589 20.4863 8.31252V8.81967C22.6463 7.78232 25.3573 8.32866 27.077 10.3181C29.1517 12.7155 28.9972 16.2967 26.7439 18.3137C24.993 19.8813 22.4873 20.0427 20.4863 18.9085V19.4168C22.6106 20.5152 25.212 20.2997 27.0412 18.6584C29.4767 16.4811 29.6369 12.6198 27.402 10.0322Z" fill="white"/>
<path d="M42.953 32.75L40.8714 29.9537L39.7937 31.1398V32.7534H38.7275V26.4141H39.7949V29.6909L42.8182 26.4152H44.0757L41.6229 29.1215L44.2393 32.75H42.953Z" fill="white"/>
<path d="M47.8201 32.75V32.1576C47.4743 32.5829 46.9245 32.7915 46.2272 32.7915C45.1898 32.7915 44.5352 32.1484 44.5352 31.2931C44.5352 30.4148 45.1956 29.8547 46.354 29.8455H47.8109V29.7002C47.8109 29.094 47.4224 28.732 46.6583 28.732C46.146 28.7476 45.6506 28.918 45.2371 29.2207L44.8129 28.4969C45.4826 28.0981 45.9713 27.8906 46.8876 27.8906C48.1267 27.8906 48.824 28.5234 48.8332 29.5827L48.8425 32.7408L47.8201 32.75ZM47.8109 31.058V30.6154H46.5084C45.8295 30.6154 45.5126 30.7952 45.5126 31.2574C45.5126 31.6919 45.8653 31.972 46.445 31.972C47.1873 31.972 47.7567 31.5813 47.8109 31.058Z" fill="white"/>
<path d="M30.6372 34.3906L33.2502 39.6523L35.847 34.3906H37.4192V42.3033H36.1928L36.1824 36.3881L33.6801 41.4815H32.8087L30.3145 36.3927V42.3033H29.0547V34.3906H30.6372Z" fill="white"/>
<path d="M42.7614 42.2995V41.5641C42.3326 42.0955 41.6422 42.356 40.7708 42.356C39.4707 42.356 38.6558 41.5492 38.6558 40.4899C38.6558 39.3926 39.4822 38.6907 40.9299 38.6803H42.751V38.4994C42.751 37.7409 42.2646 37.2891 41.3137 37.2891C40.7374 37.2891 40.138 37.492 39.5387 37.9L39.0073 36.9975C39.8441 36.5007 40.455 36.2402 41.5972 36.2402C43.1463 36.2402 44.0177 37.0321 44.0281 38.3553L44.0396 42.303L42.7614 42.2995ZM42.751 40.1845V39.6301H41.1224C40.274 39.6301 39.8775 39.8606 39.8775 40.4369C39.8775 40.9798 40.319 41.3302 41.0428 41.3302C41.9707 41.3313 42.683 40.8449 42.751 40.1891V40.1845Z" fill="white"/>
<path d="M51.3243 38.5606V42.2997H50.023V38.9225C50.023 38.0177 49.4801 37.4633 48.5753 37.4633C47.5011 37.4748 46.8556 38.277 46.8556 39.3409V42.2997H45.5566V33.9121H46.8568V37.4587C47.2867 36.6104 48.0555 36.2369 49.0848 36.2369C50.4841 36.2415 51.3243 37.1233 51.3243 38.5606Z" fill="white"/>
<path d="M58.4964 39.2851C58.4964 41.1062 57.2181 42.3499 55.3636 42.3499C53.509 42.3499 52.2192 41.1062 52.2192 39.2851C52.2192 37.464 53.4975 36.2422 55.3636 36.2422C57.2296 36.2422 58.4964 37.4755 58.4964 39.2851ZM53.5205 39.307C53.5205 40.4723 54.2778 41.2664 55.3647 41.2664C56.4516 41.2664 57.1974 40.4746 57.1974 39.307C57.1974 38.1394 56.439 37.3475 55.3647 37.3475C54.2905 37.3475 53.5205 38.1509 53.5205 39.3035V39.307Z" fill="white"/>
<path d="M62.9771 41.9227C62.5323 42.2016 62.0199 42.3542 61.4949 42.3641C60.5901 42.3641 59.8098 41.8431 59.8098 40.611V37.4886H58.9614V36.5169H59.8098V34.8652H61.0995V36.5169H62.8745V37.4886H61.0995V40.3701C61.0995 40.9914 61.337 41.1839 61.7438 41.1839C62.0613 41.1671 62.3708 41.078 62.6486 40.9234L62.9771 41.9227Z" fill="white"/>
<path d="M65.5891 37.2713C65.0796 37.2713 64.7062 37.4407 64.7062 37.8706C64.7062 38.9794 67.907 38.3801 67.8966 40.562C67.8966 41.7953 66.7993 42.3497 65.5914 42.3497C64.7085 42.3497 63.7703 42.0558 63.1709 41.5129L63.6319 40.585C64.2002 41.0531 64.9095 41.3162 65.6456 41.3319C66.2 41.3319 66.6299 41.1394 66.6299 40.6876C66.6299 39.4543 63.4625 40.1436 63.474 37.9721C63.474 36.7515 64.5367 36.2305 65.6905 36.2305C66.4489 36.2305 67.2511 36.461 67.794 36.8414L67.3191 37.8049C66.7984 37.4802 66.2023 37.2963 65.5891 37.2713V37.2713Z" fill="white"/>
<path d="M72.5343 42.2995V41.5641C72.1044 42.0955 71.4151 42.356 70.5438 42.356C69.2436 42.356 68.4287 41.5492 68.4287 40.4899C68.4287 39.3926 69.254 38.6907 70.7028 38.6803H72.5228V38.4994C72.5228 37.7409 72.0364 37.2891 71.0866 37.2891C70.5103 37.2891 69.911 37.492 69.3116 37.9L68.7791 36.9975C69.6159 36.5007 70.2268 36.2402 71.369 36.2402C72.9193 36.2402 73.7895 37.0321 73.801 38.3553L73.8126 42.303L72.5343 42.2995ZM72.5228 40.1845V39.6301H70.8941C70.0458 39.6301 69.6505 39.8606 69.6505 40.4369C69.6505 40.9798 70.0919 41.3302 70.8158 41.3302C71.7425 41.3313 72.4559 40.8449 72.5228 40.1891V40.1845Z" fill="white"/>
<path d="M75.4966 36.291L77.1725 41.0363L78.8242 36.2968H80.1243L77.8191 42.3146H76.4717L74.1411 36.2968L75.4966 36.291Z" fill="white"/>
<path d="M6.80013 37.6766H3.60739L2.99651 39.1069H1.8877L4.68393 32.7676H5.77891L8.54518 39.1069H7.4041L6.80013 37.6766ZM6.39326 36.7268L5.19915 33.9121L4.00504 36.7268H6.39326Z" fill="white"/>
<path d="M17.1444 36.1077V39.1045H16.1071V36.397C16.1071 35.6639 15.6726 35.2201 14.9672 35.2201C14.143 35.2478 13.6463 35.8817 13.6463 36.7185V39.0987H12.6089V36.397C12.6089 35.6639 12.1836 35.2201 11.4771 35.2201C10.6449 35.2478 10.1377 35.8817 10.1377 36.7185V39.0987H9.10498V34.2888H10.1423V35.2201C10.4777 34.5424 11.0921 34.252 11.8885 34.252C12.7484 34.252 13.3374 34.6773 13.5633 35.4103C13.871 34.6035 14.513 34.252 15.3913 34.252C16.4817 34.252 17.1444 34.9585 17.1444 36.1077Z" fill="white"/>
<path d="M21.0168 34.252V35.2478C20.0486 35.1936 19.4332 35.7642 19.3513 36.5871V39.1033H18.314V34.2888H19.3513V35.2478C19.6775 34.5966 20.2561 34.252 21.0168 34.252Z" fill="white"/>
<path d="M22.7738 32.9166C22.7704 33.0357 22.732 33.1512 22.6634 33.2486C22.5947 33.346 22.4989 33.421 22.3878 33.4642C22.2768 33.5075 22.1555 33.5171 22.039 33.4917C21.9226 33.4664 21.8162 33.4074 21.7331 33.3219C21.65 33.2365 21.594 33.1285 21.572 33.0114C21.5499 32.8943 21.5629 32.7733 21.6093 32.6635C21.6556 32.5537 21.7333 32.46 21.8326 32.3941C21.9319 32.3282 22.0484 32.2931 22.1676 32.293C22.249 32.2919 22.3298 32.3073 22.405 32.3385C22.4802 32.3696 22.5483 32.4158 22.6051 32.4742C22.6618 32.5325 22.7061 32.6019 22.7351 32.678C22.7641 32.754 22.7773 32.8352 22.7738 32.9166ZM22.6828 34.2928V39.1073H21.6512V34.2928H22.6828Z" fill="white"/>
<path d="M26.7192 38.7982C26.3635 39.021 25.9539 39.1429 25.5343 39.1509C24.8093 39.1509 24.1857 38.7348 24.1857 37.7482V35.2504H23.5068V34.4724H24.1857V33.1504H25.2173V34.4724H26.6385V35.2504H25.2173V37.5557C25.2173 38.0536 25.4075 38.2069 25.7325 38.2069C25.9865 38.1937 26.234 38.1228 26.4564 37.9994L26.7192 38.7982Z" fill="white"/>
<path fill-rule="evenodd" clip-rule="evenodd" d="M65.0966 6.71394C64.7601 6.55026 64.5076 6.67936 64.2771 6.78309C62.0871 7.76858 59.8972 7.72823 57.6046 7.06318C55.7697 6.53182 53.8967 6.06502 51.9822 5.90134C48.5451 5.61089 45.4699 6.80038 42.4904 8.30685C41.1891 8.96499 39.9097 9.66923 38.477 9.99196C37.2092 10.2778 36.7366 9.79372 36.9787 8.51547C37.1792 7.43778 36.9372 7.00439 35.8998 6.64247C35.6188 6.54455 35.3283 6.47655 35.033 6.43961C31.3447 5.9901 27.737 6.51338 24.1685 7.39398L23.8804 7.52768C23.8804 7.52768 27.9145 7.26373 29.6653 10.8057C31.8818 10.4726 34.1075 10.5625 36.3378 10.8726C37.2461 10.9993 37.6057 11.4811 37.2691 12.4067C37.1392 12.7822 37.0597 13.1733 37.0328 13.5697C36.9406 14.7718 37.4754 15.2294 38.6465 14.962C39.0352 14.882 39.4135 14.7575 39.7737 14.5909C41.3793 13.8094 42.9941 13.0487 44.4799 12.039C46.0589 10.9659 47.7694 10.2605 49.7093 10.0554C52.2865 9.78334 54.866 9.9862 57.441 9.8744C59.669 9.77643 61.8774 9.53668 63.7677 8.1766C64.2979 7.79163 64.9007 7.43317 65.0966 6.71394Z" fill="#F08700"/>
<path fill-rule="evenodd" clip-rule="evenodd" d="M65.0974 14.8663C64.7608 14.7026 64.5084 14.8317 64.2779 14.9354C62.0879 15.9209 59.8979 15.8806 57.6054 15.2155C55.7704 14.683 53.8974 14.2162 51.9772 14.0537C48.5401 13.7632 45.4649 14.9527 42.4854 16.4592C41.1841 17.1162 39.9047 17.8216 38.472 18.1443C37.2041 18.4302 36.7316 17.9461 36.9736 16.6678C37.1742 15.5901 36.9321 15.1567 35.8948 14.7948C35.6138 14.6965 35.3233 14.6281 35.028 14.5908C33.5093 14.4126 31.977 14.3801 30.4521 14.494C30.3968 15.0703 29.9842 18.0095 27.2617 19.4802C27.5937 19.3914 27.9268 19.3038 28.261 19.2255C30.9386 18.5938 33.6322 18.6492 36.3293 19.0249C37.2376 19.1517 37.5972 19.6335 37.2606 20.559C37.1306 20.9345 37.0511 21.3256 37.0243 21.722C36.9321 22.923 37.4669 23.3818 38.638 23.1144C39.0268 23.0323 39.405 22.9063 39.7653 22.7386C41.3708 21.9572 42.9857 21.1964 44.4714 20.1867C46.0504 19.1125 47.7609 18.4083 49.7008 18.2031C52.278 17.9311 54.8576 18.1339 57.4325 18.0221C59.6605 17.9242 61.8689 17.6833 63.7592 16.3243C64.2986 15.9382 64.9014 15.5809 65.0974 14.8663Z" fill="#00953D"/>
<path fill-rule="evenodd" clip-rule="evenodd" d="M5.97119 0V1.74621H16.3378L7.59868 17.7779L9.02677 18.8095L19.4637 0H5.97119Z" fill="white"/>
<path fill-rule="evenodd" clip-rule="evenodd" d="M29.3397 0H21.2299L15.332 10.6352L16.6967 11.3094L22.1128 1.74621H29.3397V0Z" fill="white"/>
<path d="M11.2168 48.9868H12.1919L12.1677 55.3631H11.1926L11.2041 52.5715L8.33638 52.5599L8.32601 55.3504H7.35205L7.37741 48.9707H8.35137L8.34099 51.7139L11.2075 51.7254L11.2168 48.9868Z" fill="white"/>
<path d="M13.6462 51.7168V50.819C14.0196 50.6053 14.5122 50.4997 15.1238 50.502C16.3786 50.5074 17.0037 51.1186 16.9991 52.3358L16.9876 55.3821H16.0655V54.8151C15.8181 55.2177 15.3851 55.4179 14.7665 55.4156C14.3644 55.4325 13.972 55.2895 13.675 55.0179C13.5404 54.8896 13.4346 54.7341 13.3645 54.5619C13.2943 54.3896 13.2615 54.2045 13.2681 54.0186C13.2597 53.8104 13.3032 53.6035 13.3948 53.4163C13.4864 53.2292 13.623 53.0678 13.7926 52.9467C14.1391 52.6923 14.6251 52.5663 15.2506 52.5686H16.0459V52.2943C16.0459 51.9658 15.9698 51.718 15.8154 51.5509C15.6609 51.3837 15.3958 51.2984 15.0305 51.2973C14.5371 51.2928 14.054 51.4392 13.6462 51.7168V51.7168ZM16.0528 53.2406H15.3336C14.9809 53.2406 14.7135 53.3086 14.5337 53.4458C14.4492 53.5057 14.3804 53.585 14.3331 53.6771C14.2857 53.7692 14.2612 53.8713 14.2617 53.9748C14.2564 54.0714 14.2721 54.168 14.3077 54.2579C14.3433 54.3479 14.398 54.429 14.468 54.4958C14.6383 54.6338 14.8544 54.7025 15.0731 54.6883C15.2029 54.696 15.333 54.678 15.4558 54.6353C15.5787 54.5925 15.6919 54.5259 15.7889 54.4393C15.8761 54.3545 15.9445 54.2523 15.9896 54.1393C16.0347 54.0263 16.0554 53.905 16.0505 53.7835L16.0528 53.2406Z" fill="white"/>
<path d="M19.1858 50.5993V51.4407C19.4209 50.8498 19.8416 50.5551 20.4479 50.5566C20.5461 50.558 20.644 50.5677 20.7406 50.5855V51.4937C20.5965 51.4337 20.4415 51.4039 20.2854 51.4061C20.1279 51.4047 19.9725 51.4426 19.8334 51.5165C19.6943 51.5904 19.5759 51.6978 19.4889 51.8291C19.276 52.1226 19.1648 52.4775 19.1719 52.84L19.1627 55.3942H18.2349L18.2533 50.597L19.1858 50.5993Z" fill="white"/>
<path d="M28.9549 51.7903L28.9433 54.8458H28.9307L28.9399 54.9115C28.3889 55.3065 27.7004 55.5028 26.8744 55.5005C25.8755 55.4959 25.074 55.1993 24.4701 54.6107C23.8661 54.0221 23.566 53.2241 23.5699 52.2167C23.5699 51.2393 23.8803 50.4475 24.5012 49.8412C25.122 49.2349 25.9039 48.9337 26.8467 48.9375C27.5844 48.9375 28.2018 49.0816 28.699 49.3698V50.3725C28.1565 50.0294 27.5267 49.8497 26.8848 49.855C26.204 49.855 25.6526 50.0706 25.2308 50.5016C24.8089 50.9327 24.5961 51.5044 24.5922 52.2167C24.5922 52.949 24.7962 53.5253 25.2043 53.9456C25.6123 54.366 26.1809 54.5796 26.9101 54.5865C27.2796 54.5894 27.6461 54.5201 27.989 54.3825L27.9959 52.6224H26.7004V51.7799L28.9549 51.7903Z" fill="white"/>
<path d="M31.172 48.7461L31.1616 51.4616C31.4351 50.8692 31.9315 50.5745 32.6508 50.5776C32.8583 50.5689 33.0654 50.6035 33.2588 50.6791C33.4523 50.7547 33.6279 50.8696 33.7746 51.0167C34.0573 51.3087 34.1976 51.7129 34.1953 52.2293L34.1837 55.4462H33.2559L33.2674 52.4183C33.2864 52.1419 33.1976 51.8688 33.0196 51.6564C32.9362 51.5667 32.8345 51.4959 32.7213 51.4489C32.6082 51.402 32.4862 51.38 32.3638 51.3844C32.2071 51.3841 32.052 51.4155 31.9078 51.4767C31.7636 51.5379 31.6332 51.6277 31.5247 51.7406C31.2811 51.9796 31.1581 52.3449 31.1558 52.8367L31.1466 55.4382H30.2188L30.2441 48.753L31.172 48.7461Z" fill="white"/>
<path d="M35.5597 51.8028V50.9037C35.9316 50.6916 36.4238 50.5864 37.0362 50.5879C38.291 50.5925 38.9165 51.2038 38.9127 52.4217L38.9011 55.4681H37.9791V54.8998C37.7324 55.3032 37.2998 55.5034 36.6812 55.5003C36.4821 55.5093 36.2832 55.4789 36.0959 55.4109C35.9086 55.3428 35.7366 55.2385 35.5897 55.1038C35.4552 54.9753 35.3494 54.8199 35.279 54.6477C35.2087 54.4755 35.1755 54.2904 35.1817 54.1045C35.1734 53.8964 35.2169 53.6894 35.3085 53.5023C35.4 53.3152 35.5367 53.1538 35.7061 53.0326C36.0542 52.7783 36.5406 52.6522 37.1653 52.6545H37.9595V52.3802C37.9595 52.0513 37.8826 51.8035 37.7289 51.6368C37.5753 51.47 37.314 51.3855 36.9452 51.3832C36.4513 51.3777 35.9676 51.5242 35.5597 51.8028V51.8028ZM37.9664 53.3265H37.2471C36.8929 53.3265 36.6263 53.3949 36.4472 53.5317C36.3626 53.5914 36.2936 53.6707 36.2462 53.7628C36.1989 53.8549 36.1745 53.9571 36.1752 54.0607C36.1697 54.1573 36.1853 54.254 36.2209 54.344C36.2566 54.4339 36.3114 54.5151 36.3815 54.5817C36.552 54.7193 36.7681 54.7876 36.9867 54.773C37.1162 54.781 37.2461 54.7631 37.3687 54.7206C37.4914 54.6781 37.6044 54.6117 37.7013 54.5252C37.7886 54.4402 37.8571 54.3378 37.9024 54.2246C37.9476 54.1114 37.9686 53.99 37.9641 53.8682L37.9664 53.3265Z" fill="white"/>
<path d="M41.0986 50.6802V51.5227C41.3337 50.9303 41.754 50.6356 42.3595 50.6387C42.4582 50.6394 42.5565 50.6491 42.6534 50.6675V51.5758C42.5127 51.5166 42.3612 51.4871 42.2085 51.4893C42.0511 51.4882 41.8959 51.5263 41.7568 51.6001C41.6178 51.674 41.4993 51.7813 41.4121 51.9123C41.1995 52.2059 41.0887 52.5608 41.0963 52.9232L41.087 55.4774H40.1592L40.1776 50.6802H41.0986Z" fill="white"/>
<path d="M49.5813 49.133V49.9467L47.9066 49.9398L47.8847 55.5035H46.9107L46.9315 49.9398L45.2671 49.9329V49.1191L49.5813 49.133Z" fill="white"/>
<path d="M50.5308 49.6602C50.4766 49.6065 50.4341 49.5423 50.4057 49.4715C50.3774 49.4007 50.3638 49.3249 50.3659 49.2487C50.3646 49.1717 50.3787 49.0952 50.4074 49.0237C50.4361 48.9523 50.4788 48.8873 50.5331 48.8326C50.5863 48.7773 50.6505 48.7338 50.7216 48.7048C50.7926 48.6758 50.869 48.662 50.9457 48.6643C51.0231 48.6632 51.1 48.6777 51.1717 48.707C51.2434 48.7363 51.3085 48.7797 51.363 48.8347C51.4176 48.8896 51.4605 48.955 51.4892 49.027C51.5179 49.0989 51.5318 49.1759 51.5301 49.2533C51.5306 49.3291 51.5157 49.4041 51.4861 49.4739C51.4566 49.5437 51.4131 49.6067 51.3583 49.659C51.304 49.7141 51.2389 49.7575 51.1672 49.7864C51.0954 49.8153 51.0184 49.8293 50.9411 49.8273C50.8648 49.8294 50.789 49.8156 50.7184 49.7868C50.6478 49.758 50.5839 49.7149 50.5308 49.6602V49.6602ZM50.4558 55.512L50.4743 50.716H51.4114L51.3929 55.512H50.4558Z" fill="white"/>
<path d="M53.6816 50.7223V51.5649C53.9167 50.9725 54.337 50.6774 54.9425 50.6797C55.0412 50.6815 55.1395 50.6915 55.2364 50.7097V51.6179C55.0957 51.5586 54.9442 51.5292 54.7915 51.5315C54.6342 51.5303 54.4791 51.5683 54.3401 51.6419C54.2011 51.7155 54.0825 51.8226 53.9951 51.9533C53.7825 52.2473 53.6717 52.6026 53.6793 52.9653L53.67 55.5195H52.7422L52.7606 50.7223H53.6816Z" fill="white"/>
<path d="M56.0711 51.877V50.9791C56.4438 50.7662 56.9359 50.6606 57.5476 50.6621C58.8024 50.6675 59.4275 51.2788 59.4229 52.4959L59.4114 55.5423H58.4893V54.974C58.2411 55.3775 57.8085 55.578 57.1914 55.5757C56.7893 55.593 56.3967 55.45 56.0999 55.1781C55.9654 55.0496 55.8596 54.8941 55.7893 54.7219C55.719 54.5497 55.6858 54.3646 55.6919 54.1787C55.6837 53.9706 55.7273 53.7637 55.8189 53.5766C55.9104 53.3895 56.047 53.2281 56.2163 53.1068C56.5644 52.8525 57.0504 52.7265 57.6744 52.7288H58.4697V52.4544C58.4697 52.1256 58.3928 51.8777 58.2392 51.711C58.0855 51.5443 57.8242 51.4597 57.4554 51.4574C56.962 51.4529 56.479 51.5993 56.0711 51.877ZM58.4778 53.4007H57.7585C57.4047 53.4007 57.1384 53.4687 56.9575 53.6059C56.8729 53.6656 56.8042 53.745 56.757 53.8371C56.7098 53.9293 56.6857 54.0314 56.6866 54.1349C56.6811 54.2316 56.6967 54.3282 56.7323 54.4182C56.7679 54.5082 56.8228 54.5893 56.8929 54.6559C57.0628 54.7938 57.2786 54.8622 57.4969 54.8473C57.6267 54.8555 57.7568 54.8379 57.8797 54.7953C58.0026 54.7528 58.1158 54.6862 58.2127 54.5994C58.2999 54.5146 58.3683 54.4124 58.4136 54.2994C58.4589 54.1864 58.4799 54.0652 58.4755 53.9436L58.4778 53.4007Z" fill="white"/>
<path d="M61.6095 50.7603V51.5833C61.8953 50.9909 62.3948 50.6962 63.1079 50.6992C63.5812 50.6992 63.9562 50.8456 64.2328 51.1384C64.5095 51.4312 64.6466 51.8261 64.6443 52.3233L64.6316 55.5679H63.7095L63.7211 52.5411C63.7211 52.2069 63.6385 51.951 63.4733 51.7735C63.3875 51.6843 63.2837 51.6143 63.1689 51.5682C63.054 51.5221 62.9307 51.5009 62.807 51.5061C62.6474 51.5047 62.4893 51.5378 62.3437 51.6033C62.198 51.6687 62.0683 51.7649 61.9633 51.8853C61.7328 52.1396 61.6149 52.4973 61.6095 52.9584L61.591 55.5587H60.6689L60.6874 50.7615L61.6095 50.7603Z" fill="white"/>
<path d="M69.0071 50.7868H69.9292L69.9119 55.1771C69.9119 55.9148 69.7002 56.4707 69.2768 56.8449C68.8534 57.2191 68.3155 57.4047 67.6631 57.4016C67.1258 57.4164 66.5923 57.3075 66.1037 57.0835V56.1464C66.5413 56.4229 67.0511 56.5633 67.5686 56.5498C68.5084 56.5498 68.9802 56.0888 68.984 55.1667V54.6745C68.8464 54.9178 68.6441 55.1183 68.3996 55.2537C68.1551 55.3892 67.8779 55.4544 67.5986 55.4422C67.3384 55.4439 67.0808 55.3909 66.8424 55.2864C66.6041 55.1819 66.3905 55.0284 66.2155 54.8359C65.8313 54.4348 65.6392 53.8681 65.6392 53.1358C65.6392 52.4296 65.8213 51.8483 66.1855 51.3919C66.3526 51.1726 66.5697 50.9965 66.8188 50.8782C67.0678 50.7599 67.3415 50.7029 67.617 50.7119C68.2541 50.7119 68.7151 50.985 69.0002 51.5314L69.0071 50.7868ZM67.7726 54.6515C67.9343 54.6524 68.0942 54.6191 68.242 54.5537C68.3898 54.4884 68.5221 54.3924 68.6302 54.2723C68.873 54.0172 68.9956 53.6595 68.9979 53.1992C68.9979 52.6321 68.8826 52.2122 68.6521 51.9394C68.5531 51.8121 68.4263 51.7092 68.2815 51.6383C68.1367 51.5674 67.9777 51.5304 67.8164 51.5302C67.6448 51.5236 67.4742 51.56 67.3202 51.6361C67.1662 51.7122 67.0337 51.8255 66.9347 51.9659C66.7249 52.2587 66.62 52.6448 66.62 53.1243C66.62 53.6222 66.7353 54.001 66.9658 54.2608C67.0637 54.3808 67.1866 54.478 67.326 54.5455C67.4653 54.613 67.6178 54.6492 67.7726 54.6515V54.6515Z" fill="white"/>
<path d="M71.2931 51.9415V51.0424C71.6654 50.8292 72.1587 50.7243 72.7696 50.7266C74.0244 50.7312 74.6499 51.3421 74.646 52.5593L74.6345 55.6068H73.7124V55.0385C73.4658 55.4419 73.0332 55.6421 72.4146 55.639C72.2155 55.648 72.0166 55.6176 71.8293 55.5496C71.642 55.4815 71.47 55.3772 71.3231 55.2425C71.1884 55.1139 71.0825 54.9583 71.0122 54.7859C70.9419 54.6135 70.9088 54.4282 70.915 54.2421C70.9068 54.0341 70.9505 53.8274 71.042 53.6404C71.1335 53.4535 71.2701 53.2923 71.4395 53.1713C71.7876 52.9169 72.274 52.7909 72.8987 52.7932H73.6928V52.5189C73.6928 52.1904 73.6168 51.9426 73.4623 51.7743C73.3079 51.606 73.0439 51.5219 72.6785 51.5208C72.1846 51.5163 71.7012 51.6631 71.2931 51.9415V51.9415ZM73.6997 53.4641H72.9805C72.6278 53.4641 72.3604 53.5309 72.1806 53.6692C72.0959 53.7289 72.027 53.8082 71.9796 53.9003C71.9323 53.9925 71.9079 54.0947 71.9086 54.1983C71.9032 54.2949 71.9188 54.3915 71.9544 54.4815C71.99 54.5714 72.0448 54.6526 72.1149 54.7192C72.2854 54.8568 72.5014 54.9251 72.72 54.9106C72.8496 54.9182 72.9794 54.9003 73.102 54.8578C73.2246 54.8153 73.3377 54.749 73.4346 54.6628C73.522 54.5777 73.5905 54.4753 73.6357 54.3622C73.681 54.249 73.702 54.1276 73.6974 54.0058L73.6997 53.4641Z" fill="white"/>
<path d="M0 60.1553V59.1617L1.54565 58.25H2.38821L2.36401 64.4372H1.44192L1.46151 59.262L0 60.1553Z" fill="white"/>
<path d="M3.60829 59.4282V58.5291C4.00586 58.3018 4.45742 58.1859 4.91535 58.1937C5.54545 58.1937 6.03838 58.3516 6.39416 58.6675C6.5651 58.8121 6.70147 58.9932 6.79322 59.1974C6.88497 59.4017 6.92978 59.6239 6.92436 59.8477C6.93083 60.1638 6.84338 60.4747 6.67309 60.741C6.4907 61.0057 6.23048 61.2071 5.9285 61.3173C6.25668 61.3881 6.55215 61.5657 6.76875 61.8222C6.97539 62.0862 7.08159 62.415 7.06843 62.75C7.07384 62.9879 7.027 63.2242 6.93121 63.442C6.83542 63.6599 6.69301 63.8541 6.51403 64.011C6.1475 64.3406 5.63305 64.5043 4.97068 64.502C4.42606 64.5167 3.88547 64.4047 3.3916 64.1746V63.2664C3.86144 63.521 4.38789 63.653 4.92227 63.6502C5.29456 63.6502 5.58733 63.5603 5.79941 63.3747C5.90213 63.2869 5.98406 63.1773 6.03927 63.0539C6.09448 62.9305 6.12161 62.7964 6.11868 62.6613C6.12513 62.5247 6.09678 62.3888 6.03629 62.2662C5.97581 62.1436 5.88518 62.0384 5.7729 61.9605C5.54238 61.7956 5.18968 61.7115 4.72287 61.7103H4.34481V60.9162H4.72633C5.03848 60.9279 5.34597 60.8377 5.60231 60.6592C5.71647 60.5796 5.80895 60.4727 5.87135 60.3483C5.93374 60.224 5.96409 60.0859 5.95962 59.9469C5.96919 59.8186 5.94827 59.69 5.89859 59.5714C5.84891 59.4528 5.77187 59.3476 5.67377 59.2645C5.44431 59.1004 5.16593 59.0192 4.88423 59.034C4.43003 59.041 3.9873 59.1778 3.60829 59.4282V59.4282Z" fill="white"/>
<path d="M8.60703 58.9347L8.60126 60.4735C8.60126 60.7424 8.7292 60.8773 8.98508 60.878C9.12161 60.8837 9.25605 60.8431 9.3666 60.7628V61.248C9.22852 61.3176 9.07503 61.3509 8.92054 61.3448C8.34346 61.3448 8.05569 61.0517 8.05723 60.4654V58.937H7.625V58.5175H8.0676V57.834H8.61394V58.5175H9.34815V58.9359L8.60703 58.9347Z" fill="white"/>
<path d="M10.5165 57.4199V59.0036C10.6755 58.6578 10.9648 58.4861 11.3844 58.4884C11.5052 58.4836 11.6258 58.5038 11.7385 58.5479C11.8511 58.5919 11.9535 58.6588 12.0391 58.7443C12.1249 58.8398 12.1908 58.9515 12.233 59.0728C12.2751 59.1941 12.2927 59.3226 12.2846 59.4508L12.2776 61.3273H11.7371L11.744 59.5615C11.755 59.4005 11.7033 59.2415 11.5999 59.1177C11.5512 59.0654 11.4918 59.0241 11.4258 58.9967C11.3598 58.9693 11.2887 58.9563 11.2172 58.9587C11.1246 58.9571 11.0327 58.9745 10.9471 59.0098C10.8614 59.045 10.7839 59.0975 10.7193 59.1638C10.5779 59.3037 10.5065 59.5169 10.5049 59.8035V61.3204H9.96436L9.97934 57.4199H10.5165Z" fill="white"/>
<path d="M13.1177 62.3539V61.5586L15.4229 61.5678V62.3631L13.1177 62.3539Z" fill="white"/>
<path d="M16.0869 60.2139V59.2215L17.6349 58.3086H18.4763L18.4532 64.497H17.5311L17.5507 59.3217L16.0869 60.2139Z" fill="white"/>
<path d="M20.8622 59.1166L20.853 60.7418C21.0641 60.6943 21.2797 60.6696 21.4961 60.668C22.1401 60.668 22.6441 60.8386 23.0084 61.1797C23.3726 61.5209 23.5539 61.9774 23.5524 62.5491C23.5524 63.1684 23.3468 63.6613 22.9358 64.0279C22.5247 64.3944 21.958 64.5765 21.2356 64.5742C20.5856 64.5742 20.05 64.4651 19.6289 64.2468V63.3478C20.0719 63.6081 20.5791 63.7386 21.0927 63.7247C22.0917 63.7247 22.5911 63.3228 22.5911 62.5191C22.5991 62.3763 22.5732 62.2337 22.5155 62.1029C22.4578 61.9721 22.37 61.8568 22.2592 61.7664C21.999 61.5738 21.68 61.4773 21.3567 61.4933C20.8646 61.4938 20.3789 61.6049 19.9355 61.8183L19.9493 58.3086L23.1559 58.3213V59.1281L20.8622 59.1166Z" fill="white"/>
<path d="M25.0345 58.9933V60.5332C25.0345 60.8006 25.1624 60.9351 25.4183 60.9366C25.555 60.9432 25.6897 60.9025 25.7998 60.8214V61.3066C25.6615 61.3767 25.5076 61.4105 25.3526 61.4046C24.7756 61.4046 24.4882 61.1111 24.4905 60.524L24.4962 58.9968H24.0605V58.5772H24.4962V57.8926H25.0426V58.5772H25.7768V58.9968L25.0345 58.9933Z" fill="white"/>
<path d="M26.9431 57.4844V59.0669C27.1021 58.7219 27.3914 58.5502 27.811 58.5517C27.9321 58.5469 28.053 58.5672 28.1658 58.6115C28.2787 58.6557 28.3812 58.7229 28.4668 58.8087C28.5526 58.9043 28.6184 59.016 28.6603 59.1373C28.7023 59.2587 28.7196 59.3872 28.7112 59.5153L28.6997 61.3906H28.1591L28.166 59.6259C28.1771 59.4646 28.1255 59.3052 28.0219 59.181C27.9732 59.1287 27.9139 59.0876 27.8478 59.0603C27.7818 59.0331 27.7106 59.0204 27.6393 59.0231C27.548 59.0226 27.4575 59.0407 27.3735 59.0763C27.2894 59.112 27.2136 59.1645 27.1505 59.2306C27.0076 59.37 26.9362 59.5764 26.935 59.8691L26.9292 61.386H26.3887L26.4037 57.4867L26.9431 57.4844Z" fill="white"/>
<path d="M36.2731 64.5683L35.7775 63.0053L33.2037 62.9949L32.6873 64.5544H31.6558L33.8872 58.1816H35.1643L37.3162 64.566L36.2731 64.5683ZM33.4723 62.1824L35.5159 62.1904L35.4121 61.8688C35.1755 61.1227 34.9834 60.5053 34.8358 60.0166C34.686 59.5267 34.5949 59.2225 34.565 59.1026L34.5177 58.9228C34.447 59.2186 34.1343 60.1979 33.5795 61.8608L33.4723 62.1824Z" fill="white"/>
<path d="M41.2632 59.7908H42.1853L42.1669 64.5868H41.2448V63.7639C40.9905 64.3494 40.491 64.641 39.7464 64.6387C39.2723 64.6387 38.8973 64.4969 38.6215 64.2134C38.3456 63.9298 38.2084 63.543 38.21 63.0527L38.2227 59.7793H39.1597L39.1482 62.8256C39.1482 63.153 39.2273 63.4039 39.3856 63.5783C39.4715 63.6671 39.5754 63.7365 39.6903 63.7818C39.8052 63.8272 39.9285 63.8474 40.0518 63.8411C40.2152 63.848 40.378 63.8178 40.5281 63.753C40.6782 63.6881 40.8117 63.5902 40.9186 63.4665C41.1376 63.2152 41.2479 62.8591 41.2494 62.398L41.2632 59.7908Z" fill="white"/>
<path d="M46.6042 59.8123H47.5263L47.5147 64.2014C47.5147 64.9391 47.3027 65.4951 46.8785 65.8693C46.4543 66.2435 45.9165 66.4291 45.2648 66.426C44.7271 66.4408 44.1932 66.332 43.7042 66.1079V65.1708C44.1414 65.4512 44.6522 65.5952 45.1715 65.5846C46.112 65.5846 46.5838 65.1235 46.5869 64.2014V63.7093C46.4489 63.9544 46.2456 64.1563 45.9995 64.2924C45.7534 64.4286 45.4743 64.4937 45.1934 64.4804C44.9323 64.4826 44.6736 64.4297 44.4343 64.3253C44.195 64.2208 43.9804 64.0671 43.8045 63.8741C43.4203 63.4715 43.2301 62.9044 43.2339 62.1729C43.2339 61.4675 43.4161 60.8865 43.7803 60.4301C43.9472 60.2108 44.164 60.0345 44.4129 59.916C44.6617 59.7975 44.9352 59.7402 45.2107 59.7489C45.8485 59.7489 46.3095 60.0221 46.5938 60.5684L46.6042 59.8123ZM45.3686 63.6782C45.5303 63.6789 45.6903 63.6453 45.8381 63.5798C45.9859 63.5142 46.1181 63.4181 46.2261 63.2978C46.4705 63.0435 46.5934 62.6861 46.595 62.2259C46.595 61.6572 46.4797 61.2373 46.2492 60.9661C46.1503 60.8386 46.0236 60.7354 45.8788 60.6643C45.734 60.5932 45.5749 60.5561 45.4135 60.5557C45.2419 60.5499 45.0715 60.5867 44.9176 60.6629C44.7637 60.7392 44.6311 60.8525 44.5318 60.9926C44.3159 61.2846 44.2071 61.6688 44.2056 62.1452C44.2056 62.6439 44.3209 63.0227 44.5514 63.2817C44.6497 63.4042 44.774 63.5034 44.9153 63.5719C45.0567 63.6405 45.2115 63.6768 45.3686 63.6782V63.6782Z" fill="white"/>
<path d="M51.7598 59.8315H52.6876L52.6749 64.631H51.7471V63.808C51.4927 64.3935 50.9933 64.6851 50.2487 64.6828C49.7761 64.6828 49.4015 64.5411 49.1249 64.2575C48.8483 63.974 48.7111 63.5871 48.7134 63.0968L48.7249 59.8223H49.662L49.6505 62.8686C49.6505 63.196 49.73 63.4468 49.8891 63.6213C49.9749 63.7101 50.0788 63.7796 50.1937 63.8249C50.3086 63.8702 50.4319 63.8904 50.5553 63.8841C50.7186 63.8908 50.8814 63.8607 51.0315 63.7958C51.1815 63.731 51.315 63.6331 51.422 63.5095C51.641 63.257 51.7505 62.902 51.7528 62.441L51.7598 59.8315Z" fill="white"/>
<path d="M56.726 60.0097V60.8512C56.3613 60.6532 55.9501 60.5568 55.5353 60.5722C55.3482 60.5613 55.163 60.6141 55.0098 60.7221C54.9477 60.7676 54.8976 60.8274 54.8635 60.8964C54.8294 60.9654 54.8123 61.0416 54.8138 61.1186C54.8137 61.1616 54.8184 61.2045 54.8276 61.2465C54.8382 61.2901 54.8557 61.3318 54.8795 61.3698C54.9049 61.4102 54.9279 61.4447 54.9498 61.4736C54.9805 61.5095 55.0172 61.5399 55.0582 61.5635C55.0979 61.5888 55.1364 61.6161 55.1734 61.6453C55.2179 61.6768 55.2654 61.7038 55.3152 61.726L55.4616 61.7974C55.4927 61.8136 55.548 61.8389 55.6264 61.8735C55.7048 61.9081 55.7601 61.9323 55.7912 61.945C56.1126 62.0783 56.4083 62.2667 56.6649 62.5017C56.771 62.6092 56.8536 62.7375 56.9075 62.8786C56.9615 63.0196 56.9856 63.1704 56.9784 63.3212C56.9865 63.5134 56.9489 63.7048 56.8688 63.8797C56.7886 64.0546 56.6682 64.208 56.5174 64.3274C56.21 64.5695 55.7993 64.6894 55.2852 64.687C54.7966 64.7018 54.3113 64.6028 53.8675 64.3977V63.5183C54.2763 63.7821 54.7515 63.9248 55.238 63.9298C55.4411 63.9437 55.6433 63.8916 55.8143 63.7811C55.8784 63.737 55.9307 63.6777 55.9665 63.6085C56.0023 63.5394 56.0205 63.4625 56.0194 63.3846C56.0191 63.3146 56.0048 63.2454 55.9773 63.1811C55.9498 63.1167 55.9096 63.0586 55.8592 63.01C55.7662 62.909 55.6562 62.8251 55.5342 62.7622C55.4189 62.7092 55.2368 62.6239 54.9729 62.5098C54.2221 62.1986 53.8483 61.7429 53.8514 61.1428C53.8443 60.9512 53.8841 60.7608 53.9673 60.5881C54.0504 60.4154 54.1744 60.2655 54.3286 60.1515C54.6723 59.9041 55.0891 59.7792 55.5123 59.7965C56.0325 59.7988 56.4371 59.8699 56.726 60.0097Z" fill="white"/>
<path d="M59.155 60.5757L59.1446 63.2152C59.1446 63.6763 59.3625 63.9068 59.8039 63.9068C60.0393 63.9143 60.2701 63.8415 60.4586 63.7005V64.5326C60.221 64.6524 59.9569 64.7103 59.691 64.7009C58.7013 64.6979 58.2064 64.1953 58.2064 63.1933L58.2156 60.5723H57.4688V59.853H58.2168V58.6797H59.1527V59.853H60.4114V60.5723L59.155 60.5757Z" fill="white"/>
<path d="M64.7771 63.8725L67.4638 63.8828V64.6897L63.5 64.6747V63.9082C64.2363 63.386 64.9128 62.7841 65.5171 62.1136C66.0649 61.495 66.34 60.9302 66.3423 60.4192C66.3423 60.0596 66.239 59.783 66.0323 59.5893C65.794 59.385 65.4859 59.2805 65.1724 59.2977C64.6687 59.2977 64.172 59.4833 63.6856 59.8602V58.9381C64.1519 58.5888 64.7226 58.4073 65.305 58.4229C65.8267 58.4067 66.3361 58.5826 66.7365 58.9174C67.1146 59.2432 67.3021 59.7042 67.299 60.3005C67.2982 61.4147 66.4576 62.6053 64.7771 63.8725Z" fill="white"/>
<path d="M68.2433 61.5773C68.2433 60.6068 68.44 59.8384 68.8334 59.272C69.0035 59.0043 69.24 58.7853 69.5201 58.6364C69.8001 58.4875 70.1139 58.4138 70.431 58.4226C70.751 58.4144 71.0678 58.489 71.3505 58.6393C71.6332 58.7895 71.8723 59.0103 72.0446 59.2801C72.4342 59.8495 72.6263 60.6229 72.6209 61.6003C72.6209 62.5647 72.4288 63.3365 72.0446 63.9159C71.8723 64.1913 71.6303 64.4163 71.3431 64.5681C71.0559 64.7199 70.7337 64.7931 70.4091 64.7804C70.0904 64.7862 69.7757 64.7082 69.4966 64.5543C69.2175 64.4004 68.9836 64.1759 68.8185 63.9032C68.4289 63.3185 68.2372 62.5432 68.2433 61.5773ZM69.5458 59.8749C69.3106 60.2752 69.1919 60.8442 69.1896 61.5819C69.1873 62.3195 69.3002 62.8924 69.5285 63.3004C69.759 63.7069 70.0529 63.9113 70.4102 63.9136C70.8006 63.9136 71.1079 63.7131 71.3323 63.3119C71.5567 62.9108 71.6693 62.3372 71.67 61.5911C71.67 60.8411 71.5575 60.2683 71.3323 59.8726C71.1072 59.4768 70.8044 59.2786 70.424 59.2778C70.0737 59.277 69.7809 59.4761 69.5458 59.8749Z" fill="white"/>
<path d="M74.6213 63.9113L77.3081 63.9205V64.7273L73.3442 64.7123V63.9458C74.0798 63.4227 74.7561 62.8209 75.3613 62.1512C75.9123 61.5311 76.1877 60.9652 76.1877 60.4534C76.1877 60.0938 76.0851 59.8183 75.8777 59.6247C75.6393 59.4203 75.3313 59.3159 75.0178 59.3331C74.5141 59.3331 74.0174 59.5187 73.531 59.8944V58.9723C73.996 58.625 74.5643 58.4439 75.1446 58.4582C75.6677 58.4406 76.179 58.6162 76.5808 58.9516C76.9588 59.2781 77.1463 59.7392 77.1432 60.3347C77.144 61.4512 76.3034 62.6434 74.6213 63.9113Z" fill="white"/>
<path d="M79.3134 63.9293L82.0001 63.9397V64.7465L78.0352 64.7315V63.965C78.7709 63.4421 79.4473 62.8404 80.0522 62.1704C80.6009 61.5518 80.876 60.9867 80.8775 60.4749C80.8775 60.1153 80.7745 59.839 80.5686 59.6462C80.3302 59.4418 80.0223 59.337 79.7087 59.3534C79.2039 59.3534 78.7079 59.5409 78.2207 59.9159V58.9938C78.6875 58.6446 79.2586 58.4635 79.8413 58.4797C80.3642 58.462 80.8753 58.6372 81.2774 58.9719C81.654 59.2977 81.8415 59.7607 81.8399 60.3608C81.8368 61.4727 80.9947 62.6622 79.3134 63.9293Z" fill="white"/>
<path d="M6.31689 46.5098H75.6961" stroke="white" stroke-width="0.283584" stroke-miterlimit="10"/>
</svg>
