<svg width="346" height="78" viewBox="0 0 346 78" fill="none" xmlns="http://www.w3.org/2000/svg">
<mask id="mask0_2682_1946" style="mask-type:alpha" maskUnits="userSpaceOnUse" x="0" y="0" width="346" height="78">
<path d="M0.0078125 21.4907C0.0078125 9.6217 9.6295 0 21.4985 0H322.536C335.495 0 346 10.5051 346 23.4638V53.5443C346 66.503 335.495 77.0081 322.536 77.0081H21.4985C9.62953 77.0081 0.0078125 67.3864 0.0078125 55.5175V21.4907Z" fill="black" fill-opacity="0.9"/>
</mask>
<g mask="url(#mask0_2682_1946)">
<path fill-rule="evenodd" clip-rule="evenodd" d="M57.1858 88.0605C45.8215 58.5148 110.403 26.2818 209.406 13.8394C254.471 8.17585 299.414 7.52424 338.036 11.0361C305.009 -7.44051 240.272 -19.9962 165.814 -19.9962C57.8198 -19.9962 -29.7265 6.41675 -29.7265 38.9988C-29.7265 59.4539 4.77852 77.4775 57.1858 88.0605Z" fill="url(#paint0_linear_2682_1946)"/>
</g>
<defs>
<linearGradient id="paint0_linear_2682_1946" x1="135.794" y1="53.474" x2="96.4443" y2="-62.0282" gradientUnits="userSpaceOnUse">
<stop stop-color="white" stop-opacity="0"/>
<stop offset="0.880208" stop-color="white"/>
<stop offset="0.944021" stop-color="white"/>
</linearGradient>
</defs>
</svg>
